<svg aria-hidden="true" style="position: absolute; width: 0; height: 0; overflow: hidden;" version="1.1" xmlns="http://www.w3.org/2000/svg" xmlns:xlink="http://www.w3.org/1999/xlink">
<defs>
<symbol id="icon-Vector-2" viewBox="0 0 32 32">
<path d="M16 0c-8.914 0-16 7.086-16 16s7.086 16 16 16c8.914 0 16-7.086 16-16s-7.086-16-16-16zM16 29.714c-7.543 0-13.714-6.171-13.714-13.714s6.171-13.714 13.714-13.714c7.543 0 13.714 6.171 13.714 13.714s-6.171 13.714-13.714 13.714z"></path>
</symbol>
<symbol id="icon-Vector-1" viewBox="0 0 32 32">
<path d="M28.343 32l-12.343-12.343-12.343 12.343-3.657-3.657 12.343-12.343-12.343-12.343 3.657-3.657 12.343 12.343 12.343-12.343 3.657 3.657-12.343 12.343 12.343 12.343-3.657 3.657z"></path>
</symbol>
<symbol id="icon-Vector" viewBox="0 0 45 32">
<path stroke-linejoin="round" stroke-linecap="round" stroke-miterlimit="4" stroke-width="3.3333" d="M2.667 2.667h40M2.667 16h40M2.667 29.333h40"></path>
</symbol>
<symbol id="icon-path90" viewBox="0 0 158 32">
<path d="M122.705 24.341h3.475v-23.491h-3.475v23.491zM154.003 9.311l-3.983 10.185h-0.119l-4.134-10.185h-3.743l6.199 14.235-3.533 7.919h3.622l9.555-22.153h-3.864zM134.297 21.672c-1.14 0-2.726-0.573-2.726-1.996 0-1.811 1.976-2.507 3.683-2.507 1.527 0 2.248 0.333 3.175 0.785-0.27 2.176-2.126 3.717-4.132 3.717zM134.716 8.798c-2.516 0-5.123 1.118-6.199 3.597l3.084 1.299c0.659-1.299 1.886-1.723 3.175-1.723 1.797 0 3.624 1.088 3.654 3.024v0.241c-0.629-0.363-1.976-0.906-3.624-0.906-3.324 0-6.71 1.843-6.71 5.288 0 3.144 2.726 5.169 5.78 5.169 2.337 0 3.626-1.058 4.434-2.298h0.119v1.814h3.354v-9.007c0-4.17-3.084-6.496-7.067-6.496zM113.242 12.171h-4.942v-8.052h4.942c2.598 0 4.073 2.17 4.073 4.025 0 1.821-1.475 4.027-4.073 4.027zM113.152 0.849h-8.326v23.491h3.473v-8.9h4.853c3.851 0 7.637-2.815 7.637-7.297s-3.786-7.295-7.637-7.295zM67.751 21.676c-2.4 0-4.41-2.028-4.41-4.812 0-2.815 2.009-4.875 4.41-4.875 2.371 0 4.229 2.060 4.229 4.875 0 2.785-1.858 4.812-4.229 4.812zM71.742 10.627h-0.121c-0.78-0.938-2.279-1.785-4.169-1.785-3.961 0-7.59 3.51-7.59 8.022 0 4.48 3.629 7.962 7.59 7.962 1.89 0 3.389-0.848 4.169-1.817h0.121v1.152c0 3.057-1.62 4.692-4.231 4.692-2.13 0-3.451-1.545-3.991-2.847l-3.030 1.272c0.87 2.12 3.181 4.722 7.020 4.722 4.080 0 7.531-2.422 7.531-8.325v-14.351h-3.3v1.302zM77.442 24.341h3.481v-23.493h-3.481v23.493zM86.051 16.591c-0.089-3.087 2.371-4.662 4.14-4.662 1.382 0 2.551 0.695 2.94 1.695l-7.080 2.967zM96.851 13.926c-0.659-1.785-2.67-5.085-6.78-5.085-4.080 0-7.469 3.238-7.469 7.992 0 4.48 3.359 7.992 7.858 7.992 3.631 0 5.732-2.24 6.601-3.542l-2.7-1.817c-0.899 1.332-2.13 2.21-3.901 2.21-1.769 0-3.030-0.817-3.84-2.42l10.59-4.422-0.359-0.908zM12.48 11.294v3.39h8.039c-0.24 1.907-0.87 3.3-1.829 4.268-1.171 1.182-3.002 2.484-6.21 2.484-4.952 0-8.821-4.027-8.821-9.022 0-4.997 3.87-9.022 8.821-9.022 2.67 0 4.62 1.060 6.059 2.422l2.371-2.392c-2.011-1.937-4.68-3.422-8.43-3.422-6.78 0-12.48 5.572-12.48 12.414s5.7 12.412 12.48 12.412c3.659 0 6.419-1.212 8.579-3.482 2.222-2.24 2.91-5.388 2.91-7.932 0-0.787-0.060-1.513-0.18-2.118h-11.309zM33.111 21.676c-2.4 0-4.471-1.998-4.471-4.843 0-2.877 2.071-4.844 4.471-4.844 2.398 0 4.469 1.967 4.469 4.844 0 2.845-2.071 4.843-4.469 4.843zM33.111 8.841c-4.382 0-7.951 3.36-7.951 7.992 0 4.602 3.57 7.992 7.951 7.992 4.38 0 7.95-3.39 7.95-7.992 0-4.632-3.57-7.992-7.95-7.992zM50.453 21.676c-2.4 0-4.471-1.998-4.471-4.843 0-2.877 2.071-4.844 4.471-4.844s4.469 1.967 4.469 4.844c0 2.845-2.069 4.843-4.469 4.843zM50.453 8.841c-4.38 0-7.949 3.36-7.949 7.992 0 4.602 3.57 7.992 7.949 7.992s7.95-3.39 7.95-7.992c0-4.632-3.57-7.992-7.95-7.992z"></path>
</symbol>
<symbol id="icon-Playstore" viewBox="0 0 28 32">
<path fill="#ea4335" style="fill: var(--color1, #ea4335)" d="M13.073 15.282l-12.954 14.059c0.001 0.003 0.001 0.006 0.002 0.009 0.398 1.527 1.76 2.65 3.379 2.65 0.647 0 1.254-0.179 1.775-0.493l0.041-0.025 14.58-8.603-6.824-7.597z"></path>
<path fill="#fbbc04" style="fill: var(--color2, #fbbc04)" d="M26.178 12.888l-0.012-0.009-6.295-3.731-7.092 6.453 7.117 7.276 6.261-3.694c1.097-0.607 1.843-1.79 1.843-3.154 0-1.356-0.735-2.533-1.823-3.141z"></path>
<path fill="#4285f4" style="fill: var(--color3, #4285f4)" d="M0.119 2.658c-0.078 0.294-0.119 0.602-0.119 0.921v24.843c0 0.319 0.041 0.627 0.12 0.919l13.398-13.699-13.399-12.984z"></path>
<path fill="#34a853" style="fill: var(--color4, #34a853)" d="M13.169 16l6.704-6.854-14.563-8.634c-0.529-0.325-1.147-0.511-1.808-0.511-1.618 0-2.983 1.126-3.381 2.654 0 0.001-0.001 0.002-0.001 0.004l13.050 13.342z"></path>
</symbol>
</defs>
</svg>
